<?xml version="1.0" ?><svg viewBox="0 0 64 64" xmlns="http://www.w3.org/2000/svg"><defs><style>.cls-1{fill:#a15d30;}.cls-2{fill:#fff3c9;}.cls-3{fill:#ffeab8;}.cls-4{fill:#824b27;}.cls-5{fill:#fc5b68;}.cls-6{fill:#fdcd74;}</style></defs><title/><g data-name="fill outline" id="fill_outline"><path class="cls-1" d="M16,3a5,5,0,0,0-5,5V55a6,6,0,0,1,6-6H54V3Z"/><path class="cls-2" d="M54,61H17a6,6,0,0,1-6-6h0a6,6,0,0,1,6-6H54a9.373,9.373,0,0,0,0,12Z"/><path class="cls-3" d="M17,52H52.325A9.346,9.346,0,0,1,54,49H17a5.978,5.978,0,0,0-5.8,7.5A6,6,0,0,1,17,52Z"/><path class="cls-4" d="M45,44H25a4,4,0,0,0-4-4h0V12h0a4,4,0,0,0,4-4H45a4,4,0,0,0,4,4h0V40h0A4,4,0,0,0,45,44Z"/><polygon class="cls-5" points="24 61 21 58 18 61 18 53 24 53 24 61"/><rect class="cls-4" height="46" width="2" x="15" y="3"/><polygon class="cls-6" points="43 18 37 18 37 12 33 12 33 18 27 18 27 22 33 22 33 40 37 40 37 22 43 22 43 18"/><path d="M55,3a1,1,0,0,0-1-1H16a6.006,6.006,0,0,0-6,6V55a7.008,7.008,0,0,0,7,7H54a1,1,0,0,0,.769-1.64,8.369,8.369,0,0,1,0-10.72.993.993,0,0,0,.158-.277.721.721,0,0,0,.025-.091.977.977,0,0,0,.039-.22c0-.018.009-.034.009-.052ZM53,48H17V4H53ZM12,8a4,4,0,0,1,3-3.858V48.3a7,7,0,0,0-3,1.816ZM23,58.586l-1.293-1.293a1,1,0,0,0-1.414,0L19,58.586V54h4Zm-2,.828.586.586H20.414ZM25,60V53a1,1,0,0,0-1-1H18a1,1,0,0,0-1,1v7a5,5,0,0,1,0-10H52.111a10.37,10.37,0,0,0-.583,1.259c-.047.124-.078.252-.121.377-.111.322-.214.646-.292.975-.04.168-.065.336-.1.505-.054.294-.1.587-.13.884-.018.182-.026.362-.034.544-.013.289-.014.577,0,.867.007.183.017.364.034.546.027.293.071.583.123.873.031.174.058.346.1.518.073.312.168.619.27.924.048.143.085.289.139.43a10.306,10.306,0,0,0,.595,1.3Z"/><path d="M27,23h5V40a1,1,0,0,0,1,1h4a1,1,0,0,0,1-1V23h5a1,1,0,0,0,1-1V18a1,1,0,0,0-1-1H38V12a1,1,0,0,0-1-1H33a1,1,0,0,0-1,1v5H27a1,1,0,0,0-1,1v4A1,1,0,0,0,27,23Zm1-4h5a1,1,0,0,0,1-1V13h2v5a1,1,0,0,0,1,1h5v2H37a1,1,0,0,0-1,1V39H34V22a1,1,0,0,0-1-1H28Z"/><path d="M21,41a3,3,0,0,1,3,3,1,1,0,0,0,1,1H45a1,1,0,0,0,1-1,3,3,0,0,1,3-3,1,1,0,0,0,1-1V12a1,1,0,0,0-1-1,3,3,0,0,1-3-3,1,1,0,0,0-1-1H25a1,1,0,0,0-1,1,3,3,0,0,1-3,3,1,1,0,0,0-1,1V40A1,1,0,0,0,21,41Zm1-28.1A5.013,5.013,0,0,0,25.9,9H44.1A5.013,5.013,0,0,0,48,12.9V39.1A5.013,5.013,0,0,0,44.1,43H25.9A5.013,5.013,0,0,0,22,39.1Z"/></g></svg>